<svg width="260" height="71" viewBox="0 0 260 71" fill="none" xmlns="http://www.w3.org/2000/svg">
<path fill-rule="evenodd" clip-rule="evenodd" d="M60.6471 16.0247L61.2033 16.3615C69.6025 21.7076 74.7623 31.04 77.8068 39.9737C79.1656 43.961 80.0331 47.6643 80.5751 50.5368C77.5499 51.2496 73.5808 52.0245 69.1335 52.4965C58.9526 53.5769 47.4619 52.9436 38.7359 47.6605C33.5713 44.5336 29.5618 39.8968 26.4744 34.6039C19.9079 23.3463 29.2107 9.91211 42.8847 10.9065C49.3151 11.3741 55.4819 12.8974 60.6471 16.0247Z" fill="#24997F"/>
<path fill-rule="evenodd" clip-rule="evenodd" d="M51.8604 31.0473L52.0514 31.6689C54.7617 41.2491 52.4012 51.6485 48.7273 60.3423C47.0876 64.2225 45.2703 67.5638 43.7629 70.0683C41.0307 68.5868 37.5526 66.5234 33.9194 63.9157C25.6019 57.9459 17.4476 49.8254 14.4514 40.0746C12.6781 34.3035 12.7718 28.1742 13.9904 22.1691C16.5824 9.3967 32.4668 5.56207 42.0103 15.4053C46.4982 20.0341 50.0869 25.2756 51.8604 31.0473Z" fill="#FEABA0"/>
<path d="M259.96 37.5354C259.96 40.8504 259.452 43.818 258.437 46.438C257.421 49.0045 255.977 51.17 254.106 52.9345C252.288 54.699 250.095 56.0357 247.529 56.9447C244.962 57.8537 242.102 58.3082 238.947 58.3082C235.792 58.3082 232.932 57.8269 230.365 56.8645C227.799 55.902 225.58 54.5386 223.708 52.7741C221.89 50.9561 220.473 48.7639 219.457 46.1974C218.442 43.6308 217.934 40.7435 217.934 37.5354C217.934 34.3807 218.442 31.5201 219.457 28.9536C220.473 26.387 221.89 24.2215 223.708 22.457C225.58 20.6391 227.799 19.2489 230.365 18.2864C232.932 17.324 235.792 16.8428 238.947 16.8428C242.102 16.8428 244.962 17.3507 247.529 18.3667C250.095 19.3291 252.288 20.7193 254.106 22.5372C255.977 24.3017 257.421 26.4672 258.437 29.0338C259.452 31.6003 259.96 34.4341 259.96 37.5354ZM231.889 37.5354C231.889 40.797 232.504 43.31 233.734 45.0745C235.017 46.7855 236.781 47.641 239.027 47.641C241.273 47.641 242.984 46.7588 244.16 44.9943C245.39 43.2298 246.005 40.7435 246.005 37.5354C246.005 34.3272 245.39 31.8676 244.16 30.1566C242.93 28.3921 241.193 27.5099 238.947 27.5099C236.701 27.5099 234.964 28.3921 233.734 30.1566C232.504 31.8676 231.889 34.3272 231.889 37.5354Z" fill="#FEABA0"/>
<path d="M172.471 4.8118C173.005 4.65139 173.861 4.49099 175.037 4.33058C176.214 4.1167 177.417 4.00977 178.646 4.00977C179.823 4.00977 180.865 4.08997 181.774 4.25037C182.737 4.41078 183.539 4.7316 184.18 5.21282C184.822 5.69404 185.303 6.36241 185.624 7.21792C185.945 8.01996 186.105 9.08934 186.105 10.4261V18.286C187.442 17.7513 188.699 17.3771 189.875 17.1632C191.105 16.9493 192.441 16.8424 193.885 16.8424C196.452 16.8424 198.884 17.2969 201.184 18.2058C203.483 19.1148 205.515 20.4515 207.279 22.216C209.044 23.927 210.434 26.0658 211.45 28.6323C212.466 31.1989 212.974 34.1664 212.974 37.535C212.974 41.0105 212.439 44.0582 211.37 46.6782C210.354 49.2447 208.91 51.3835 207.039 53.0945C205.167 54.8055 202.868 56.1155 200.141 57.0245C197.468 57.88 194.5 58.3078 191.238 58.3078C187.709 58.3078 184.715 57.88 182.256 57.0245C179.796 56.2224 177.711 55.2065 176 53.9767C173.647 52.3192 172.471 50.1804 172.471 47.5604V4.8118ZM191.238 47.5604C193.698 47.5604 195.596 46.7317 196.933 45.0741C198.323 43.3631 199.018 40.85 199.018 37.535C199.018 34.1664 198.323 31.6533 196.933 29.9958C195.543 28.3383 193.671 27.5095 191.319 27.5095C190.249 27.5095 189.313 27.6164 188.511 27.8303C187.763 28.0442 186.934 28.365 186.025 28.7927V46.2772C186.613 46.6515 187.308 46.9723 188.11 47.2396C188.966 47.4535 190.009 47.5604 191.238 47.5604Z" fill="#FEABA0"/>
<path d="M149.354 7.21834C149.354 5.18651 150.022 3.4755 151.359 2.0853C152.749 0.695099 154.567 0 156.812 0C159.058 0 160.849 0.695099 162.186 2.0853C163.576 3.4755 164.271 5.18651 164.271 7.21834C164.271 9.25017 163.576 10.9612 162.186 12.3514C160.849 13.7416 159.058 14.4367 156.812 14.4367C154.567 14.4367 152.749 13.7416 151.359 12.3514C150.022 10.9612 149.354 9.25017 149.354 7.21834ZM163.63 56.9447C163.042 57.0516 162.159 57.1853 160.983 57.3457C159.86 57.5596 158.711 57.6665 157.534 57.6665C156.358 57.6665 155.289 57.5863 154.326 57.4259C153.417 57.2655 152.642 56.9447 152 56.4635C151.359 55.9823 150.851 55.3406 150.476 54.5386C150.156 53.6831 149.995 52.587 149.995 51.2502V18.6073C150.583 18.5003 151.439 18.3667 152.562 18.2063C153.738 17.9924 154.914 17.8854 156.091 17.8854C157.267 17.8854 158.31 17.9657 159.219 18.1261C160.181 18.2865 160.983 18.6073 161.625 19.0885C162.266 19.5697 162.748 20.2381 163.068 21.0936C163.443 21.8956 163.63 22.965 163.63 24.3018V56.9447Z" fill="#FEABA0"/>
<path d="M91.7615 32.6429C91.7615 28.4723 92.4031 24.7829 93.6864 21.5748C95.0231 18.3666 96.8143 15.6931 99.06 13.5544C101.359 11.3621 104.033 9.70459 107.08 8.58174C110.182 7.45889 113.523 6.89746 117.106 6.89746C120.688 6.89746 124.003 7.45889 127.051 8.58174C130.152 9.70459 132.853 11.3621 135.152 13.5544C137.451 15.6931 139.242 18.3666 140.525 21.5748C141.862 24.7829 142.53 28.4723 142.53 32.6429C142.53 37.8829 141.568 42.3475 139.643 46.0369C137.718 49.6728 135.098 52.5334 131.783 54.6187C132.585 54.993 133.521 55.394 134.59 55.8218C135.713 56.2495 136.863 56.6773 138.039 57.105C139.269 57.5328 140.525 57.9338 141.809 58.3081C143.092 58.7359 144.295 59.1101 145.418 59.431C145.471 59.7518 145.498 60.0191 145.498 60.233C145.498 60.5003 145.498 60.741 145.498 60.9548C145.498 64.0026 144.696 66.2215 143.092 67.6117C141.541 69.0019 139.483 69.697 136.916 69.697C134.457 69.697 131.917 69.0019 129.297 67.6117C126.677 66.275 124.003 64.3234 121.276 61.7569L117.748 58.4685H117.106C113.47 58.4685 110.101 57.9071 107 56.7842C103.899 55.6079 101.226 53.9236 98.9798 51.7314C96.7341 49.5392 94.9696 46.839 93.6864 43.6308C92.4031 40.4227 91.7615 36.76 91.7615 32.6429ZM106.198 32.6429C106.198 37.5086 107.187 41.1445 109.166 43.5506C111.144 45.9567 113.791 47.1598 117.106 47.1598C120.474 47.1598 123.148 45.9567 125.126 43.5506C127.105 41.1445 128.094 37.5086 128.094 32.6429C128.094 27.8307 127.105 24.2215 125.126 21.8154C123.201 19.4093 120.555 18.2062 117.186 18.2062C113.871 18.2062 111.198 19.4093 109.166 21.8154C107.187 24.168 106.198 27.7772 106.198 32.6429Z" fill="#FEABA0"/>
</svg>
